<?xml version="1.0" encoding="UTF-8"?>
<svg version="1.1" xmlns="http://www.w3.org/2000/svg" width="512" height="512">
<path d="M0 0 C168.96 0 337.92 0 512 0 C512 168.96 512 337.92 512 512 C343.04 512 174.08 512 0 512 C0 343.04 0 174.08 0 0 Z " fill="#FEFEFE" transform="translate(0,0)"/>
<path d="M0 0 C50.82 0 101.64 0 154 0 C154 6.27 154 12.54 154 19 C160.27 19 166.54 19 173 19 C173 48.7 173 78.4 173 109 C141.32 109 109.64 109 77 109 C77 115.27 77 121.54 77 128 C96.14 128 115.28 128 135 128 C135 134.27 135 140.54 135 147 C109.59 147 84.18 147 58 147 C58 159.54 58 172.08 58 185 C70.54 185 83.08 185 96 185 C96 197.87 96 210.74 96 224 C89.73 224 83.46 224 77 224 C77 217.73 77 211.46 77 205 C70.73 205 64.46 205 58 205 C58 228.1 58 251.2 58 275 C51.73 275 45.46 275 39 275 C39 285.56 39 296.12 39 307 C32.4 307 25.8 307 19 307 C19 313.27 19 319.54 19 326 C12.73 326 6.46 326 0 326 C0 351.41 0 376.82 0 403 C6.27 403 12.54 403 19 403 C19 409.27 19 415.54 19 422 C4.48 422 -10.04 422 -25 422 C-25 403.19 -25 384.38 -25 365 C-31.6 365 -38.2 365 -45 365 C-45 358.4 -45 351.8 -45 345 C-51.27 345 -57.54 345 -64 345 C-64 351.6 -64 358.2 -64 365 C-70.27 365 -76.54 365 -83 365 C-83 371.27 -83 377.54 -83 384 C-89.27 384 -95.54 384 -102 384 C-102 390.27 -102 396.54 -102 403 C-95.73 403 -89.46 403 -83 403 C-83 409.27 -83 415.54 -83 422 C-95.54 422 -108.08 422 -121 422 C-121 396.59 -121 371.18 -121 345 C-127.6 345 -134.2 345 -141 345 C-141 338.73 -141 332.46 -141 326 C-147.27 326 -153.54 326 -160 326 C-160 319.73 -160 313.46 -160 307 C-166.27 307 -172.54 307 -179 307 C-179 298.42 -179 289.84 -179 281 C-185.27 281 -191.54 281 -198 281 C-198 274.73 -198 268.46 -198 262 C-204.27 262 -210.54 262 -217 262 C-217 224.05 -217 186.1 -217 147 C-210.73 147 -204.46 147 -198 147 C-198 159.54 -198 172.08 -198 185 C-191.73 185 -185.46 185 -179 185 C-179 191.6 -179 198.2 -179 205 C-172.73 205 -166.46 205 -160 205 C-160 211.27 -160 217.54 -160 224 C-147.13 224 -134.26 224 -121 224 C-121 217.73 -121 211.46 -121 205 C-114.73 205 -108.46 205 -102 205 C-102 198.4 -102 191.8 -102 185 C-91.44 185 -80.88 185 -70 185 C-70 178.73 -70 172.46 -70 166 C-61.75 166 -53.5 166 -45 166 C-45 159.73 -45 153.46 -45 147 C-38.4 147 -31.8 147 -25 147 C-25 104.76 -25 62.52 -25 19 C-16.75 19 -8.5 19 0 19 C0 12.73 0 6.46 0 0 Z " fill="#525252" transform="translate(275,45)"/>
<path d="M0 0 C61.38 0 122.76 0 186 0 C186 12.54 186 25.08 186 38 C181.71 38 177.42 38 173 38 C173 31.73 173 25.46 173 19 C122.18 19 71.36 19 19 19 C19 25.27 19 31.54 19 38 C10.75 38 2.5 38 -6 38 C-6 80.24 -6 122.48 -6 166 C-12.6 166 -19.2 166 -26 166 C-26 172.27 -26 178.54 -26 185 C-34.25 185 -42.5 185 -51 185 C-51 191.27 -51 197.54 -51 204 C-61.56 204 -72.12 204 -83 204 C-83 210.6 -83 217.2 -83 224 C-89.27 224 -95.54 224 -102 224 C-102 230.27 -102 236.54 -102 243 C-114.87 243 -127.74 243 -141 243 C-141 236.73 -141 230.46 -141 224 C-147.27 224 -153.54 224 -160 224 C-160 219.71 -160 215.42 -160 211 C-138.88 211 -117.76 211 -96 211 C-96 204.73 -96 198.46 -96 192 C-85.44 192 -74.88 192 -64 192 C-64 185.4 -64 178.8 -64 172 C-55.42 172 -46.84 172 -38 172 C-38 165.73 -38 159.46 -38 153 C-31.73 153 -25.46 153 -19 153 C-19 110.76 -19 68.52 -19 25 C-12.73 25 -6.46 25 0 25 C0 16.75 0 8.5 0 0 Z " fill="#F7F7F7" transform="translate(256,26)"/>
<path d="M0 0 C6.27 0 12.54 0 19 0 C19 31.68 19 63.36 19 96 C4.15 96 -10.7 96 -26 96 C-26 108.87 -26 121.74 -26 135 C-38.54 135 -51.08 135 -64 135 C-64 162.39 -64 189.78 -64 218 C-76.54 218 -89.08 218 -102 218 C-102 226.58 -102 235.16 -102 244 C-106.29 244 -110.58 244 -115 244 C-115 222.88 -115 201.76 -115 180 C-108.73 180 -102.46 180 -96 180 C-96 186.27 -96 192.54 -96 199 C-89.73 199 -83.46 199 -77 199 C-77 186.13 -77 173.26 -77 160 C-89.54 160 -102.08 160 -115 160 C-115 147.46 -115 134.92 -115 122 C-89.59 122 -64.18 122 -38 122 C-38 115.73 -38 109.46 -38 103 C-57.14 103 -76.28 103 -96 103 C-96 96.73 -96 90.46 -96 84 C-64.32 84 -32.64 84 0 84 C0 56.28 0 28.56 0 0 Z " fill="#F7F7F7" transform="translate(448,70)"/>
<path d="M0 0 C3.96 0 7.92 0 12 0 C12 6.27 12 12.54 12 19 C18.6 19 25.2 19 32 19 C32 44.41 32 69.82 32 96 C44.54 96 57.08 96 70 96 C70 91.71 70 87.42 70 83 C76.27 83 82.54 83 89 83 C89 93.56 89 104.12 89 115 C65.9 115 42.8 115 19 115 C19 87.61 19 60.22 19 32 C12.73 32 6.46 32 0 32 C0 21.44 0 10.88 0 0 Z " fill="#F7F7F7" transform="translate(122,371)"/>
<path d="M0 0 C3.96 0 7.92 0 12 0 C12 14.85 12 29.7 12 45 C5.73 45 -0.54 45 -7 45 C-7 57.54 -7 70.08 -7 83 C-13.27 83 -19.54 83 -26 83 C-26 97.85 -26 112.7 -26 128 C-30.29 128 -34.58 128 -39 128 C-39 102.59 -39 77.18 -39 51 C-32.73 51 -26.46 51 -20 51 C-20 44.73 -20 38.46 -20 32 C-13.4 32 -6.8 32 0 32 C0 21.44 0 10.88 0 0 Z " fill="#F7F7F7" transform="translate(314,320)"/>
<path d="M0 0 C4.29 0 8.58 0 13 0 C13 18.81 13 37.62 13 57 C27.52 57 42.04 57 57 57 C57 52.71 57 48.42 57 44 C61.29 44 65.58 44 70 44 C70 54.56 70 65.12 70 76 C46.9 76 23.8 76 0 76 C0 50.92 0 25.84 0 0 Z " fill="#F7F7F7" transform="translate(237,410)"/>
<path d="M0 0 C6.6 0 13.2 0 20 0 C20 35.97 20 71.94 20 109 C13.4 109 6.8 109 0 109 C0 73.03 0 37.06 0 0 Z " fill="#F7F7F7" transform="translate(38,198)"/>
<path d="M0 0 C8.58 0 17.16 0 26 0 C26 16.83 26 33.66 26 51 C21.71 51 17.42 51 13 51 C13 38.46 13 25.92 13 13 C8.71 13 4.42 13 0 13 C0 8.71 0 4.42 0 0 Z " fill="#F7F7F7" transform="translate(64,179)"/>
<path d="M0 0 C6.6 0 13.2 0 20 0 C20 6.27 20 12.54 20 19 C13.4 19 6.8 19 0 19 C0 12.73 0 6.46 0 0 Z " fill="#FFFFFF" transform="translate(294,77)"/>
<path d="M0 0 C6.27 0 12.54 0 19 0 C19 6.27 19 12.54 19 19 C12.73 19 6.46 19 0 19 C0 12.73 0 6.46 0 0 Z " fill="#F7F7F7" transform="translate(173,429)"/>
<path d="M0 0 C4.29 0 8.58 0 13 0 C13 6.6 13 13.2 13 20 C8.71 20 4.42 20 0 20 C0 13.4 0 6.8 0 0 Z " fill="#F7F7F7" transform="translate(83,326)"/>
<path d="M0 0 C6.27 0 12.54 0 19 0 C19 4.29 19 8.58 19 13 C12.73 13 6.46 13 0 13 C0 8.71 0 4.42 0 0 Z " fill="#F7F7F7" transform="translate(211,390)"/>
<path d="M0 0 C4.29 0 8.58 0 13 0 C13 6.27 13 12.54 13 19 C8.71 19 4.42 19 0 19 C0 12.73 0 6.46 0 0 Z " fill="#F7F7F7" transform="translate(64,307)"/>
<path d="M0 0 C6.27 0 12.54 0 19 0 C19 3.96 19 7.92 19 12 C12.73 12 6.46 12 0 12 C0 8.04 0 4.08 0 0 Z " fill="#F7F7F7" transform="translate(192,410)"/>
<path d="M0 0 C4.29 0 8.58 0 13 0 C13 4.29 13 8.58 13 13 C8.71 13 4.42 13 0 13 C0 8.71 0 4.42 0 0 Z " fill="#F7F7F7" transform="translate(102,352)"/>
<path d="M0 0 C2.31 0 4.62 0 7 0 C7 2.31 7 4.62 7 7 C4.69 7 2.38 7 0 7 C0 4.69 0 2.38 0 0 Z " fill="#EEEEEE" transform="translate(499,499)"/>
<path d="M0 0 C2.31 0 4.62 0 7 0 C7 2.31 7 4.62 7 7 C4.69 7 2.38 7 0 7 C0 4.69 0 2.38 0 0 Z " fill="#EEEEEE" transform="translate(6,499)"/>
<path d="M0 0 C2.31 0 4.62 0 7 0 C7 2.31 7 4.62 7 7 C4.69 7 2.38 7 0 7 C0 4.69 0 2.38 0 0 Z " fill="#EEEEEE" transform="translate(499,6)"/>
<path d="M0 0 C2.31 0 4.62 0 7 0 C7 2.31 7 4.62 7 7 C4.69 7 2.38 7 0 7 C0 4.69 0 2.38 0 0 Z " fill="#EEEEEE" transform="translate(6,6)"/>
<path d="M0 0 C1.98 0 3.96 0 6 0 C6 1.98 6 3.96 6 6 C4.02 6 2.04 6 0 6 C0 4.02 0 2.04 0 0 Z " fill="#F6F6F6" transform="translate(474,493)"/>
<path d="M0 0 C1.98 0 3.96 0 6 0 C6 1.98 6 3.96 6 6 C4.02 6 2.04 6 0 6 C0 4.02 0 2.04 0 0 Z " fill="#F6F6F6" transform="translate(32,493)"/>
<path d="M0 0 C1.98 0 3.96 0 6 0 C6 1.98 6 3.96 6 6 C4.02 6 2.04 6 0 6 C0 4.02 0 2.04 0 0 Z " fill="#F7F7F7" transform="translate(493,474)"/>
<path d="M0 0 C1.98 0 3.96 0 6 0 C6 1.98 6 3.96 6 6 C4.02 6 2.04 6 0 6 C0 4.02 0 2.04 0 0 Z " fill="#F6F6F6" transform="translate(13,474)"/>
<path d="M0 0 C1.98 0 3.96 0 6 0 C6 1.98 6 3.96 6 6 C4.02 6 2.04 6 0 6 C0 4.02 0 2.04 0 0 Z " fill="#F6F6F6" transform="translate(493,32)"/>
<path d="M0 0 C1.98 0 3.96 0 6 0 C6 1.98 6 3.96 6 6 C4.02 6 2.04 6 0 6 C0 4.02 0 2.04 0 0 Z " fill="#F6F6F6" transform="translate(13,32)"/>
<path d="M0 0 C1.98 0 3.96 0 6 0 C6 1.98 6 3.96 6 6 C4.02 6 2.04 6 0 6 C0 4.02 0 2.04 0 0 Z " fill="#F6F6F6" transform="translate(474,13)"/>
<path d="M0 0 C1.98 0 3.96 0 6 0 C6 1.98 6 3.96 6 6 C4.02 6 2.04 6 0 6 C0 4.02 0 2.04 0 0 Z " fill="#F6F6F6" transform="translate(32,13)"/>
</svg>
